<?xml version="1.0" encoding="utf-8"?>
<!-- Generator: Adobe Illustrator 16.0.0, SVG Export Plug-In . SVG Version: 6.00 Build 0)  -->
<!DOCTYPE svg PUBLIC "-//W3C//DTD SVG 1.1//EN" "http://www.w3.org/Graphics/SVG/1.1/DTD/svg11.dtd">
<svg version="1.1" id="Calque_1" xmlns="http://www.w3.org/2000/svg" xmlns:xlink="http://www.w3.org/1999/xlink" x="0px" y="0px"
	 width="62px" height="34px" viewBox="0 0 62 34" enable-background="new 0 0 62 34" xml:space="preserve">
<path fill="#FFFFFF" d="M50.348,34H12.292c0,0-8.244-1.796-8.244-10.774c0,0-0.785-8.657,9.161-10.772c0,0,1.341-9.207,11.393-6.032
	c1.479-1.87,5.079-6.489,12.245-6.277c4.966,0,13.219,1.867,14.383,13.049c2.875,1.076,7.179,3.509,7.179,10.121
	C58.408,25.078,58.408,31.958,50.348,34z"/>
<path fill-rule="evenodd" clip-rule="evenodd" fill="#F0642F" stroke="#F0642F" stroke-miterlimit="10" d="M37.611,14.181
	c-2.477-2.27-6.297-2.393-8.859-0.164l0,0c-2.021,1.758-2.188,3.741-2.185,6.177l1.441-0.002l-2.519,3.114l-2.53-3.104l1.442-0.003
	c0.172-3.103,0.379-5.56,2.948-7.793c3.438-2.988,8.377-2.995,11.616,0.127L37.611,14.181z M28.47,23.738
	c2.476,2.335,6.346,2.48,8.935,0.231l0,0c1.997-1.737,2.153-3.749,2.189-6.159l-1.442,0.003l2.518-3.113l2.53,3.104l-1.441,0.003
	c-0.181,3.095-0.391,5.548-2.953,7.774c-3.484,3.027-8.487,3.02-11.722-0.229L28.47,23.738z"/>
</svg>
